<?xml version="1.0" encoding="UTF-8" standalone="no"?>
<!DOCTYPE svg PUBLIC "-//W3C//DTD SVG 1.1//EN"
 "http://www.w3.org/Graphics/SVG/1.1/DTD/svg11.dtd">
<!-- Generated by graphviz version 12.2.1 (20241206.2353)
 -->
<!-- Title: MirrorMaker Architecture &#45; mirrormaker_mmcinsafra Pages: 1 -->
<svg width="385pt" height="864pt"
 viewBox="0.00 0.00 384.96 864.00" xmlns="http://www.w3.org/2000/svg" xmlns:xlink="http://www.w3.org/1999/xlink">
<g id="graph0" class="graph" transform="scale(0.590426 0.590426) rotate(0) translate(144 1319.35)">
<title>MirrorMaker Architecture &#45; mirrormaker_mmcinsafra</title>
<polygon fill="white" stroke="none" points="-144,144 -144,-1319.35 508,-1319.35 508,144 -144,144"/>
<text text-anchor="middle" x="182" y="-5.5" font-family="Sans-Serif" font-size="15.00" fill="#2d3436">MirrorMaker Architecture &#45; mirrormaker_mmcinsafra</text>
<!-- cdb4f3c5ffb14448a2425084ea9304d3 -->
<g id="node1" class="node">
<title>cdb4f3c5ffb14448a2425084ea9304d3</title>
<image xlink:href="/Users/samalada/myenv/lib/python3.13/site-packages/resources/aws/compute/ec2.png" width="100.8px" height="100.8px" preserveAspectRatio="xMinYMin meet" x="254" y="-678.35"/>
<text text-anchor="middle" x="304.4" y="-560.7" font-family="Sans-Serif" font-size="13.00" fill="#2d3436">kfkcinsafra</text>
</g>
<!-- 40a7ad836dae4929a8b3109390e35368 -->
<g id="node2" class="node">
<title>40a7ad836dae4929a8b3109390e35368</title>
<image xlink:href="/Users/samalada/myenv/lib/python3.13/site-packages/resources/aws/compute/ec2.png" width="100.8px" height="100.8px" preserveAspectRatio="xMinYMin meet" x="9.2" y="-1157.35"/>
<text text-anchor="middle" x="59.6" y="-1039.7" font-family="Sans-Serif" font-size="13.00" fill="#2d3436">kfkcinsafra &#160;&#160;test</text>
</g>
<!-- 40a7ad836dae4929a8b3109390e35368&#45;&gt;cdb4f3c5ffb14448a2425084ea9304d3 -->
<g id="edge1" class="edge">
<title>40a7ad836dae4929a8b3109390e35368&#45;&gt;cdb4f3c5ffb14448a2425084ea9304d3</title>
<path fill="none" stroke="#7b8894" d="M109.81,-1106.95C181.55,-1106.95 304.8,-1106.95 304.8,-1106.95 304.8,-1106.95 304.8,-707.84 304.8,-707.84"/>
<polygon fill="#7b8894" stroke="#7b8894" points="308.3,-707.84 304.8,-697.84 301.3,-707.84 308.3,-707.84"/>
</g>
<!-- 96ed54d65be44dbda397d9e83c3e4fec -->
<g id="node3" class="node">
<title>96ed54d65be44dbda397d9e83c3e4fec</title>
<image xlink:href="/Users/samalada/myenv/lib/python3.13/site-packages/resources/aws/compute/ec2.png" width="100.8px" height="100.8px" preserveAspectRatio="xMinYMin meet" x="9.2" y="-847.35"/>
<text text-anchor="middle" x="59.6" y="-727.9" font-family="Sans-Serif" font-size="13.00" fill="#2d3436">kfkcinsasin &#160;&#160;changelog&#45;</text>
<text text-anchor="middle" x="59.6" y="-714.4" font-family="Sans-Serif" font-size="13.00" fill="#2d3436">outgress&#45;identity&#45;cins,notific</text>
<text text-anchor="middle" x="59.6" y="-700.9" font-family="Sans-Serif" font-size="13.00" fill="#2d3436">ation_ingress_token</text>
</g>
<!-- 96ed54d65be44dbda397d9e83c3e4fec&#45;&gt;cdb4f3c5ffb14448a2425084ea9304d3 -->
<g id="edge2" class="edge">
<title>96ed54d65be44dbda397d9e83c3e4fec&#45;&gt;cdb4f3c5ffb14448a2425084ea9304d3</title>
<path fill="none" stroke="#7b8894" d="M76.8,-699.84C76.8,-672.84 76.8,-650.75 76.8,-650.75 76.8,-650.75 242.66,-650.75 242.66,-650.75"/>
<polygon fill="#7b8894" stroke="#7b8894" points="242.66,-654.25 252.66,-650.75 242.66,-647.25 242.66,-654.25"/>
</g>
<!-- 039dfe96bdbf46d3902d7715a4d56b58 -->
<g id="node4" class="node">
<title>039dfe96bdbf46d3902d7715a4d56b58</title>
<image xlink:href="/Users/samalada/myenv/lib/python3.13/site-packages/resources/aws/compute/ec2.png" width="100.8px" height="100.8px" preserveAspectRatio="xMinYMin meet" x="9.2" y="-509.35"/>
<text text-anchor="middle" x="59.6" y="-389.9" font-family="Sans-Serif" font-size="13.00" fill="#2d3436">kfkcinsasyd &#160;&#160;changelog&#45;</text>
<text text-anchor="middle" x="59.6" y="-376.4" font-family="Sans-Serif" font-size="13.00" fill="#2d3436">outgress&#45;identity&#45;cins,notific</text>
<text text-anchor="middle" x="59.6" y="-362.9" font-family="Sans-Serif" font-size="13.00" fill="#2d3436">ation_ingress_token</text>
</g>
<!-- 039dfe96bdbf46d3902d7715a4d56b58&#45;&gt;cdb4f3c5ffb14448a2425084ea9304d3 -->
<g id="edge3" class="edge">
<title>039dfe96bdbf46d3902d7715a4d56b58&#45;&gt;cdb4f3c5ffb14448a2425084ea9304d3</title>
<path fill="none" stroke="#7b8894" d="M42.8,-556.06C42.8,-583.06 42.8,-605.15 42.8,-605.15 42.8,-605.15 242.76,-605.15 242.76,-605.15"/>
<polygon fill="#7b8894" stroke="#7b8894" points="242.76,-608.65 252.76,-605.15 242.76,-601.65 242.76,-608.65"/>
</g>
<!-- 74626f859d7c4bdcb61bace66dd4b1e8 -->
<g id="node5" class="node">
<title>74626f859d7c4bdcb61bace66dd4b1e8</title>
<image xlink:href="/Users/samalada/myenv/lib/python3.13/site-packages/resources/aws/compute/ec2.png" width="100.8px" height="100.8px" preserveAspectRatio="xMinYMin meet" x="9.2" y="-171.35"/>
<text text-anchor="middle" x="59.6" y="-51.9" font-family="Sans-Serif" font-size="13.00" fill="#2d3436">kfkcinsadxb &#160;&#160;changelog&#45;</text>
<text text-anchor="middle" x="59.6" y="-38.4" font-family="Sans-Serif" font-size="13.00" fill="#2d3436">outgress&#45;identity&#45;cins,notific</text>
<text text-anchor="middle" x="59.6" y="-24.9" font-family="Sans-Serif" font-size="13.00" fill="#2d3436">ation_ingress_token</text>
</g>
<!-- 74626f859d7c4bdcb61bace66dd4b1e8&#45;&gt;cdb4f3c5ffb14448a2425084ea9304d3 -->
<g id="edge4" class="edge">
<title>74626f859d7c4bdcb61bace66dd4b1e8&#45;&gt;cdb4f3c5ffb14448a2425084ea9304d3</title>
<path fill="none" stroke="#7b8894" d="M109.81,-120.95C181.55,-120.95 304.8,-120.95 304.8,-120.95 304.8,-120.95 304.8,-548.06 304.8,-548.06"/>
<polygon fill="#7b8894" stroke="#7b8894" points="301.3,-548.06 304.8,-558.06 308.3,-548.06 301.3,-548.06"/>
</g>
</g>
</svg>
