<?xml version="1.0" encoding="UTF-8" standalone="no"?>
<!DOCTYPE svg PUBLIC "-//W3C//DTD SVG 1.1//EN"
 "http://www.w3.org/Graphics/SVG/1.1/DTD/svg11.dtd">
<!-- Generated by graphviz version 12.2.1 (20241206.2353)
 -->
<!-- Title: MirrorMaker Architecture &#45; mirrormaker_mmcinsaore Pages: 1 -->
<svg width="387pt" height="864pt"
 viewBox="0.00 0.00 387.17 864.00" xmlns="http://www.w3.org/2000/svg" xmlns:xlink="http://www.w3.org/1999/xlink">
<g id="graph0" class="graph" transform="scale(0.590426 0.590426) rotate(0) translate(144 1319.35)">
<title>MirrorMaker Architecture &#45; mirrormaker_mmcinsaore</title>
<polygon fill="white" stroke="none" points="-144,144 -144,-1319.35 511.75,-1319.35 511.75,144 -144,144"/>
<text text-anchor="middle" x="183.88" y="-5.5" font-family="Sans-Serif" font-size="15.00" fill="#2d3436">MirrorMaker Architecture &#45; mirrormaker_mmcinsaore</text>
<!-- 0cabbccec25e43679aa69faafe6bab06 -->
<g id="node1" class="node">
<title>0cabbccec25e43679aa69faafe6bab06</title>
<image xlink:href="/Users/samalada/myenv/lib/python3.13/site-packages/resources/aws/compute/ec2.png" width="100.8px" height="100.8px" preserveAspectRatio="xMinYMin meet" x="255.875" y="-678.35"/>
<text text-anchor="middle" x="306.27" y="-560.7" font-family="Sans-Serif" font-size="13.00" fill="#2d3436">kfkcinsaore</text>
</g>
<!-- 1d11b4d466394a049d1d0729bef50079 -->
<g id="node2" class="node">
<title>1d11b4d466394a049d1d0729bef50079</title>
<image xlink:href="/Users/samalada/myenv/lib/python3.13/site-packages/resources/aws/compute/ec2.png" width="100.8px" height="100.8px" preserveAspectRatio="xMinYMin meet" x="11.075" y="-1157.35"/>
<text text-anchor="middle" x="61.47" y="-1039.7" font-family="Sans-Serif" font-size="13.00" fill="#2d3436">kfkcinsaore &#160;&#160;test</text>
</g>
<!-- 1d11b4d466394a049d1d0729bef50079&#45;&gt;0cabbccec25e43679aa69faafe6bab06 -->
<g id="edge1" class="edge">
<title>1d11b4d466394a049d1d0729bef50079&#45;&gt;0cabbccec25e43679aa69faafe6bab06</title>
<path fill="none" stroke="#7b8894" d="M111.69,-1106.95C183.42,-1106.95 306.67,-1106.95 306.67,-1106.95 306.67,-1106.95 306.67,-707.84 306.67,-707.84"/>
<polygon fill="#7b8894" stroke="#7b8894" points="310.18,-707.84 306.68,-697.84 303.18,-707.84 310.18,-707.84"/>
</g>
<!-- 3d9daac6407b4555ae5ecbf46cb78671 -->
<g id="node3" class="node">
<title>3d9daac6407b4555ae5ecbf46cb78671</title>
<image xlink:href="/Users/samalada/myenv/lib/python3.13/site-packages/resources/aws/compute/ec2.png" width="100.8px" height="100.8px" preserveAspectRatio="xMinYMin meet" x="11.075" y="-847.35"/>
<text text-anchor="middle" x="61.47" y="-727.9" font-family="Sans-Serif" font-size="13.00" fill="#2d3436">kfkcinsasin &#160;&#160;changelog&#45;</text>
<text text-anchor="middle" x="61.47" y="-714.4" font-family="Sans-Serif" font-size="13.00" fill="#2d3436">outgress&#45;identity&#45;cins,notific</text>
<text text-anchor="middle" x="61.47" y="-700.9" font-family="Sans-Serif" font-size="13.00" fill="#2d3436">ation_ingress_token</text>
</g>
<!-- 3d9daac6407b4555ae5ecbf46cb78671&#45;&gt;0cabbccec25e43679aa69faafe6bab06 -->
<g id="edge2" class="edge">
<title>3d9daac6407b4555ae5ecbf46cb78671&#45;&gt;0cabbccec25e43679aa69faafe6bab06</title>
<path fill="none" stroke="#7b8894" d="M78.67,-699.84C78.67,-672.84 78.67,-650.75 78.67,-650.75 78.67,-650.75 244.53,-650.75 244.53,-650.75"/>
<polygon fill="#7b8894" stroke="#7b8894" points="244.53,-654.25 254.53,-650.75 244.53,-647.25 244.53,-654.25"/>
</g>
<!-- c6dea5f81cc147be96402fbea66ec174 -->
<g id="node4" class="node">
<title>c6dea5f81cc147be96402fbea66ec174</title>
<image xlink:href="/Users/samalada/myenv/lib/python3.13/site-packages/resources/aws/compute/ec2.png" width="100.8px" height="100.8px" preserveAspectRatio="xMinYMin meet" x="11.075" y="-509.35"/>
<text text-anchor="middle" x="61.47" y="-389.9" font-family="Sans-Serif" font-size="13.00" fill="#2d3436">kfkcinsasyd &#160;&#160;changelog&#45;</text>
<text text-anchor="middle" x="61.47" y="-376.4" font-family="Sans-Serif" font-size="13.00" fill="#2d3436">outgress&#45;identity&#45;cins,notific</text>
<text text-anchor="middle" x="61.47" y="-362.9" font-family="Sans-Serif" font-size="13.00" fill="#2d3436">ation_ingress_token</text>
</g>
<!-- c6dea5f81cc147be96402fbea66ec174&#45;&gt;0cabbccec25e43679aa69faafe6bab06 -->
<g id="edge3" class="edge">
<title>c6dea5f81cc147be96402fbea66ec174&#45;&gt;0cabbccec25e43679aa69faafe6bab06</title>
<path fill="none" stroke="#7b8894" d="M44.67,-556.06C44.67,-583.06 44.67,-605.15 44.67,-605.15 44.67,-605.15 244.63,-605.15 244.63,-605.15"/>
<polygon fill="#7b8894" stroke="#7b8894" points="244.63,-608.65 254.63,-605.15 244.63,-601.65 244.63,-608.65"/>
</g>
<!-- f122cfffd25a4be1b224dc60d309849a -->
<g id="node5" class="node">
<title>f122cfffd25a4be1b224dc60d309849a</title>
<image xlink:href="/Users/samalada/myenv/lib/python3.13/site-packages/resources/aws/compute/ec2.png" width="100.8px" height="100.8px" preserveAspectRatio="xMinYMin meet" x="11.075" y="-171.35"/>
<text text-anchor="middle" x="61.47" y="-51.9" font-family="Sans-Serif" font-size="13.00" fill="#2d3436">kfkcinsadxb &#160;&#160;changelog&#45;</text>
<text text-anchor="middle" x="61.47" y="-38.4" font-family="Sans-Serif" font-size="13.00" fill="#2d3436">outgress&#45;identity&#45;cins,notific</text>
<text text-anchor="middle" x="61.47" y="-24.9" font-family="Sans-Serif" font-size="13.00" fill="#2d3436">ation_ingress_token</text>
</g>
<!-- f122cfffd25a4be1b224dc60d309849a&#45;&gt;0cabbccec25e43679aa69faafe6bab06 -->
<g id="edge4" class="edge">
<title>f122cfffd25a4be1b224dc60d309849a&#45;&gt;0cabbccec25e43679aa69faafe6bab06</title>
<path fill="none" stroke="#7b8894" d="M111.69,-120.95C183.42,-120.95 306.67,-120.95 306.67,-120.95 306.67,-120.95 306.67,-548.06 306.67,-548.06"/>
<polygon fill="#7b8894" stroke="#7b8894" points="303.18,-548.06 306.68,-558.06 310.18,-548.06 303.18,-548.06"/>
</g>
</g>
</svg>
