<?xml version="1.0" encoding="UTF-8" standalone="no"?>
<!DOCTYPE svg PUBLIC "-//W3C//DTD SVG 1.1//EN"
 "http://www.w3.org/Graphics/SVG/1.1/DTD/svg11.dtd">
<!-- Generated by graphviz version 12.2.1 (20241206.2353)
 -->
<!-- Title: MirrorMaker Architecture &#45; mirrormaker_mmcinsanrt Pages: 1 -->
<svg width="385pt" height="864pt"
 viewBox="0.00 0.00 384.96 864.00" xmlns="http://www.w3.org/2000/svg" xmlns:xlink="http://www.w3.org/1999/xlink">
<g id="graph0" class="graph" transform="scale(0.590426 0.590426) rotate(0) translate(144 1319.35)">
<title>MirrorMaker Architecture &#45; mirrormaker_mmcinsanrt</title>
<polygon fill="white" stroke="none" points="-144,144 -144,-1319.35 508,-1319.35 508,144 -144,144"/>
<text text-anchor="middle" x="182" y="-5.5" font-family="Sans-Serif" font-size="15.00" fill="#2d3436">MirrorMaker Architecture &#45; mirrormaker_mmcinsanrt</text>
<!-- a612d46538ad4f0290bb46547d471931 -->
<g id="node1" class="node">
<title>a612d46538ad4f0290bb46547d471931</title>
<image xlink:href="/Users/samalada/myenv/lib/python3.13/site-packages/resources/aws/compute/ec2.png" width="100.8px" height="100.8px" preserveAspectRatio="xMinYMin meet" x="254" y="-678.35"/>
<text text-anchor="middle" x="304.4" y="-560.7" font-family="Sans-Serif" font-size="13.00" fill="#2d3436">kfkcinsanrt</text>
</g>
<!-- 68d22286409248cd89c967c37e16f51e -->
<g id="node2" class="node">
<title>68d22286409248cd89c967c37e16f51e</title>
<image xlink:href="/Users/samalada/myenv/lib/python3.13/site-packages/resources/aws/compute/ec2.png" width="100.8px" height="100.8px" preserveAspectRatio="xMinYMin meet" x="9.2" y="-1157.35"/>
<text text-anchor="middle" x="59.6" y="-1039.7" font-family="Sans-Serif" font-size="13.00" fill="#2d3436">kfkcinsanrt &#160;&#160;test</text>
</g>
<!-- 68d22286409248cd89c967c37e16f51e&#45;&gt;a612d46538ad4f0290bb46547d471931 -->
<g id="edge1" class="edge">
<title>68d22286409248cd89c967c37e16f51e&#45;&gt;a612d46538ad4f0290bb46547d471931</title>
<path fill="none" stroke="#7b8894" d="M109.81,-1106.95C181.55,-1106.95 304.8,-1106.95 304.8,-1106.95 304.8,-1106.95 304.8,-707.84 304.8,-707.84"/>
<polygon fill="#7b8894" stroke="#7b8894" points="308.3,-707.84 304.8,-697.84 301.3,-707.84 308.3,-707.84"/>
</g>
<!-- 83fed7a30e9d40c594fb30723d25097a -->
<g id="node3" class="node">
<title>83fed7a30e9d40c594fb30723d25097a</title>
<image xlink:href="/Users/samalada/myenv/lib/python3.13/site-packages/resources/aws/compute/ec2.png" width="100.8px" height="100.8px" preserveAspectRatio="xMinYMin meet" x="9.2" y="-847.35"/>
<text text-anchor="middle" x="59.6" y="-727.9" font-family="Sans-Serif" font-size="13.00" fill="#2d3436">kfkcinsadxb &#160;&#160;changelog&#45;</text>
<text text-anchor="middle" x="59.6" y="-714.4" font-family="Sans-Serif" font-size="13.00" fill="#2d3436">outgress&#45;identity&#45;cins,notific</text>
<text text-anchor="middle" x="59.6" y="-700.9" font-family="Sans-Serif" font-size="13.00" fill="#2d3436">ation_ingress_token</text>
</g>
<!-- 83fed7a30e9d40c594fb30723d25097a&#45;&gt;a612d46538ad4f0290bb46547d471931 -->
<g id="edge2" class="edge">
<title>83fed7a30e9d40c594fb30723d25097a&#45;&gt;a612d46538ad4f0290bb46547d471931</title>
<path fill="none" stroke="#7b8894" d="M76.8,-699.84C76.8,-672.84 76.8,-650.75 76.8,-650.75 76.8,-650.75 242.66,-650.75 242.66,-650.75"/>
<polygon fill="#7b8894" stroke="#7b8894" points="242.66,-654.25 252.66,-650.75 242.66,-647.25 242.66,-654.25"/>
</g>
<!-- 567f006b3f14474aa4d0bb6aca2a3ce3 -->
<g id="node4" class="node">
<title>567f006b3f14474aa4d0bb6aca2a3ce3</title>
<image xlink:href="/Users/samalada/myenv/lib/python3.13/site-packages/resources/aws/compute/ec2.png" width="100.8px" height="100.8px" preserveAspectRatio="xMinYMin meet" x="9.2" y="-509.35"/>
<text text-anchor="middle" x="59.6" y="-389.9" font-family="Sans-Serif" font-size="13.00" fill="#2d3436">kfkcinsasin &#160;&#160;changelog&#45;</text>
<text text-anchor="middle" x="59.6" y="-376.4" font-family="Sans-Serif" font-size="13.00" fill="#2d3436">outgress&#45;identity&#45;cins,notific</text>
<text text-anchor="middle" x="59.6" y="-362.9" font-family="Sans-Serif" font-size="13.00" fill="#2d3436">ation_ingress_token</text>
</g>
<!-- 567f006b3f14474aa4d0bb6aca2a3ce3&#45;&gt;a612d46538ad4f0290bb46547d471931 -->
<g id="edge3" class="edge">
<title>567f006b3f14474aa4d0bb6aca2a3ce3&#45;&gt;a612d46538ad4f0290bb46547d471931</title>
<path fill="none" stroke="#7b8894" d="M42.8,-556.06C42.8,-583.06 42.8,-605.15 42.8,-605.15 42.8,-605.15 242.76,-605.15 242.76,-605.15"/>
<polygon fill="#7b8894" stroke="#7b8894" points="242.76,-608.65 252.76,-605.15 242.76,-601.65 242.76,-608.65"/>
</g>
<!-- ae9b408e3e484821967b7b2627ef5aa0 -->
<g id="node5" class="node">
<title>ae9b408e3e484821967b7b2627ef5aa0</title>
<image xlink:href="/Users/samalada/myenv/lib/python3.13/site-packages/resources/aws/compute/ec2.png" width="100.8px" height="100.8px" preserveAspectRatio="xMinYMin meet" x="9.2" y="-171.35"/>
<text text-anchor="middle" x="59.6" y="-51.9" font-family="Sans-Serif" font-size="13.00" fill="#2d3436">kfkcinsasyd &#160;&#160;changelog&#45;</text>
<text text-anchor="middle" x="59.6" y="-38.4" font-family="Sans-Serif" font-size="13.00" fill="#2d3436">outgress&#45;identity&#45;cins,notific</text>
<text text-anchor="middle" x="59.6" y="-24.9" font-family="Sans-Serif" font-size="13.00" fill="#2d3436">ation_ingress_token</text>
</g>
<!-- ae9b408e3e484821967b7b2627ef5aa0&#45;&gt;a612d46538ad4f0290bb46547d471931 -->
<g id="edge4" class="edge">
<title>ae9b408e3e484821967b7b2627ef5aa0&#45;&gt;a612d46538ad4f0290bb46547d471931</title>
<path fill="none" stroke="#7b8894" d="M109.81,-120.95C181.55,-120.95 304.8,-120.95 304.8,-120.95 304.8,-120.95 304.8,-548.06 304.8,-548.06"/>
<polygon fill="#7b8894" stroke="#7b8894" points="301.3,-548.06 304.8,-558.06 308.3,-548.06 301.3,-548.06"/>
</g>
</g>
</svg>
