<?xml version="1.0" encoding="UTF-8" standalone="no"?>
<!DOCTYPE svg PUBLIC "-//W3C//DTD SVG 1.1//EN"
 "http://www.w3.org/Graphics/SVG/1.1/DTD/svg11.dtd">
<!-- Generated by graphviz version 12.2.1 (20241206.2353)
 -->
<!-- Title: MirrorMaker Architecture &#45; mirrormaker_mmcinsapdx Pages: 1 -->
<svg width="389pt" height="864pt"
 viewBox="0.00 0.00 388.50 864.00" xmlns="http://www.w3.org/2000/svg" xmlns:xlink="http://www.w3.org/1999/xlink">
<g id="graph0" class="graph" transform="scale(0.590426 0.590426) rotate(0) translate(144 1319.35)">
<title>MirrorMaker Architecture &#45; mirrormaker_mmcinsapdx</title>
<polygon fill="white" stroke="none" points="-144,144 -144,-1319.35 514,-1319.35 514,144 -144,144"/>
<text text-anchor="middle" x="185" y="-5.5" font-family="Sans-Serif" font-size="15.00" fill="#2d3436">MirrorMaker Architecture &#45; mirrormaker_mmcinsapdx</text>
<!-- 948576ac8d8d4dc2a16ad72971e80989 -->
<g id="node1" class="node">
<title>948576ac8d8d4dc2a16ad72971e80989</title>
<image xlink:href="/Users/samalada/myenv/lib/python3.13/site-packages/resources/aws/compute/ec2.png" width="100.8px" height="100.8px" preserveAspectRatio="xMinYMin meet" x="257" y="-678.35"/>
<text text-anchor="middle" x="307.4" y="-560.7" font-family="Sans-Serif" font-size="13.00" fill="#2d3436">kfkcinsapdx</text>
</g>
<!-- 860d6e7a9e984a47a3547f6559ee48eb -->
<g id="node2" class="node">
<title>860d6e7a9e984a47a3547f6559ee48eb</title>
<image xlink:href="/Users/samalada/myenv/lib/python3.13/site-packages/resources/aws/compute/ec2.png" width="100.8px" height="100.8px" preserveAspectRatio="xMinYMin meet" x="12.2" y="-1157.35"/>
<text text-anchor="middle" x="62.6" y="-1039.7" font-family="Sans-Serif" font-size="13.00" fill="#2d3436">kfkcinsapdx &#160;&#160;test</text>
</g>
<!-- 860d6e7a9e984a47a3547f6559ee48eb&#45;&gt;948576ac8d8d4dc2a16ad72971e80989 -->
<g id="edge1" class="edge">
<title>860d6e7a9e984a47a3547f6559ee48eb&#45;&gt;948576ac8d8d4dc2a16ad72971e80989</title>
<path fill="none" stroke="#7b8894" d="M112.81,-1106.95C184.55,-1106.95 307.8,-1106.95 307.8,-1106.95 307.8,-1106.95 307.8,-707.84 307.8,-707.84"/>
<polygon fill="#7b8894" stroke="#7b8894" points="311.3,-707.84 307.8,-697.84 304.3,-707.84 311.3,-707.84"/>
</g>
<!-- 21f5d3df06fc40e8a5392310f3a6034a -->
<g id="node3" class="node">
<title>21f5d3df06fc40e8a5392310f3a6034a</title>
<image xlink:href="/Users/samalada/myenv/lib/python3.13/site-packages/resources/aws/compute/ec2.png" width="100.8px" height="100.8px" preserveAspectRatio="xMinYMin meet" x="12.2" y="-847.35"/>
<text text-anchor="middle" x="62.6" y="-727.9" font-family="Sans-Serif" font-size="13.00" fill="#2d3436">kfkcinsadxb &#160;&#160;changelog&#45;</text>
<text text-anchor="middle" x="62.6" y="-714.4" font-family="Sans-Serif" font-size="13.00" fill="#2d3436">outgress&#45;identity&#45;cins,notific</text>
<text text-anchor="middle" x="62.6" y="-700.9" font-family="Sans-Serif" font-size="13.00" fill="#2d3436">ation_ingress_token</text>
</g>
<!-- 21f5d3df06fc40e8a5392310f3a6034a&#45;&gt;948576ac8d8d4dc2a16ad72971e80989 -->
<g id="edge2" class="edge">
<title>21f5d3df06fc40e8a5392310f3a6034a&#45;&gt;948576ac8d8d4dc2a16ad72971e80989</title>
<path fill="none" stroke="#7b8894" d="M79.8,-699.84C79.8,-672.84 79.8,-650.75 79.8,-650.75 79.8,-650.75 245.66,-650.75 245.66,-650.75"/>
<polygon fill="#7b8894" stroke="#7b8894" points="245.66,-654.25 255.66,-650.75 245.66,-647.25 245.66,-654.25"/>
</g>
<!-- c485960fa2b249078cf58690574cd075 -->
<g id="node4" class="node">
<title>c485960fa2b249078cf58690574cd075</title>
<image xlink:href="/Users/samalada/myenv/lib/python3.13/site-packages/resources/aws/compute/ec2.png" width="100.8px" height="100.8px" preserveAspectRatio="xMinYMin meet" x="12.2" y="-509.35"/>
<text text-anchor="middle" x="62.6" y="-389.9" font-family="Sans-Serif" font-size="13.00" fill="#2d3436">kfkcinsasin &#160;&#160;changelog&#45;</text>
<text text-anchor="middle" x="62.6" y="-376.4" font-family="Sans-Serif" font-size="13.00" fill="#2d3436">outgress&#45;identity&#45;cins,notific</text>
<text text-anchor="middle" x="62.6" y="-362.9" font-family="Sans-Serif" font-size="13.00" fill="#2d3436">ation_ingress_token</text>
</g>
<!-- c485960fa2b249078cf58690574cd075&#45;&gt;948576ac8d8d4dc2a16ad72971e80989 -->
<g id="edge3" class="edge">
<title>c485960fa2b249078cf58690574cd075&#45;&gt;948576ac8d8d4dc2a16ad72971e80989</title>
<path fill="none" stroke="#7b8894" d="M45.8,-556.06C45.8,-583.06 45.8,-605.15 45.8,-605.15 45.8,-605.15 245.76,-605.15 245.76,-605.15"/>
<polygon fill="#7b8894" stroke="#7b8894" points="245.76,-608.65 255.76,-605.15 245.76,-601.65 245.76,-608.65"/>
</g>
<!-- 1694982a737b4edc9ca3ee6915b3812d -->
<g id="node5" class="node">
<title>1694982a737b4edc9ca3ee6915b3812d</title>
<image xlink:href="/Users/samalada/myenv/lib/python3.13/site-packages/resources/aws/compute/ec2.png" width="100.8px" height="100.8px" preserveAspectRatio="xMinYMin meet" x="12.2" y="-171.35"/>
<text text-anchor="middle" x="62.6" y="-51.9" font-family="Sans-Serif" font-size="13.00" fill="#2d3436">kfkcinsasyd &#160;&#160;changelog&#45;</text>
<text text-anchor="middle" x="62.6" y="-38.4" font-family="Sans-Serif" font-size="13.00" fill="#2d3436">outgress&#45;identity&#45;cins,notific</text>
<text text-anchor="middle" x="62.6" y="-24.9" font-family="Sans-Serif" font-size="13.00" fill="#2d3436">ation_ingress_token</text>
</g>
<!-- 1694982a737b4edc9ca3ee6915b3812d&#45;&gt;948576ac8d8d4dc2a16ad72971e80989 -->
<g id="edge4" class="edge">
<title>1694982a737b4edc9ca3ee6915b3812d&#45;&gt;948576ac8d8d4dc2a16ad72971e80989</title>
<path fill="none" stroke="#7b8894" d="M112.81,-120.95C184.55,-120.95 307.8,-120.95 307.8,-120.95 307.8,-120.95 307.8,-548.06 307.8,-548.06"/>
<polygon fill="#7b8894" stroke="#7b8894" points="304.3,-548.06 307.8,-558.06 311.3,-548.06 304.3,-548.06"/>
</g>
</g>
</svg>
